<?xml version="1.0" encoding="utf-8"?>
<!-- Generator: Adobe Illustrator 19.2.1, SVG Export Plug-In . SVG Version: 6.00 Build 0)  -->
<svg version="1.1" id="layer" xmlns="http://www.w3.org/2000/svg" xmlns:xlink="http://www.w3.org/1999/xlink" x="0px" y="0px"
	 viewBox="0 0 652 652" style="enable-background:new 0 0 652 652;" xml:space="preserve">
<style type="text/css">
	.st0{fill:#202843;}
	.st1{fill:#FFFFFF;}
	.st2{fill:#FFC94C;}
</style>
<path class="st0" d="M610.3,305.2V298h12.7v65.5h-13V356c-4.6,5.4-11.2,9-20.6,9c-18.6,0-30.6-14.8-30.6-34.2
	c0-19.3,12-34.2,30.6-34.2C597.5,296.5,605.2,299.6,610.3,305.2z M609.4,318c-3.9-5.7-10.4-9.2-18-9.2c-11.5,0-19.5,9.8-19.5,22
	s7.6,22.2,19.5,22.2c7.9,0,14.3-4.5,18-10.3V318 M532.5,281.1c0-5,4.1-9.1,9.2-9.1c4.9,0,9.1,4.2,9.1,9.1c0,5.1-4.1,9.2-9.1,9.2
	C536.6,290.3,532.5,286.2,532.5,281.1 M534.9,363.4h13.5V298h-13.5V363.4z M508.4,273.7h13.2v89.7h-13V356c-4.6,5.4-11.2,9-20.6,9
	c-18.6,0-30.6-14.8-30.6-34.2c0-19.3,12-34.2,30.6-34.2c8,0,15.4,2.9,20.4,8V273.7z M508.1,318c-3.9-5.7-10.4-9.2-18-9.2
	c-11.5,0-19.5,9.8-19.5,22s7.6,22.2,19.5,22.2c7.9,0,14.3-4.5,18-10.3V318 M419.3,365.1c5.9,0,11.3-1.1,16.1-3.3
	c4.9-2.2,9.1-5.4,12.8-9.6l-8.1-8.6l0,0c-2.7,2.9-5.7,5-9.1,6.8c-3.3,1.7-7.1,2.5-11.4,2.5c-10.1,0-18.9-7.6-20.2-17.6h50.9
	c0-0.1,0-0.3,0-0.4c0.1-1.6,0.2-3.1,0.2-4.7c0-18.7-13.4-33.9-32-33.9c-18.7,0-32.8,14.8-32.8,34.4
	C385.7,350.7,399.8,365.1,419.3,365.1z M328.3,356.9v30.8H315V298h13v7.4c4.6-5.4,11.2-9,20.6-9c18.6,0,30.6,14.8,30.6,34.2
	c0,19.3-12,34.2-30.6,34.2C340.7,364.9,333.3,362,328.3,356.9z M328.5,343.4c3.9,5.7,10.4,9.2,18,9.2c11.5,0,19.5-9.8,19.5-22
	c0-12.2-7.6-22.2-19.5-22.2c-7.9,0-14.3,4.5-18,10.3V343.4 M268,329.8L244.9,298h16.3l15.4,21.7l15.4-21.7h16.1L285,329.9l24.3,33.5
	h-16.4l-16.4-23.2l-16.4,23.2h-16.4L268,329.8 M201.3,325h34v-12.8h-34v-23.3h36.9V276h-51.7v87.4h52v-12.8h-37.2V325 M150.3,340.9
	c11.7-34.2-6.6-71.4-40.8-83.1c-34.2-11.7-71.4,6.6-83.1,40.8C14.8,332.8,33,370,67.3,381.7C101.5,393.4,138.7,375.1,150.3,340.9"/>
<path class="st1" d="M399.7,324.1h36.9c-1.3-9.1-8.8-15.9-18.4-15.9c-4.8,0-9.2,2.1-12.6,5.2C402.5,316.4,400.3,320.3,399.7,324.1"
	/>
<path id="path54" class="st2" d="M33,354.6c10.2-4.9,44.9-21.9,51.7-25.9c5.6-3.3,14-8.1,14-8.1l3.5,7.2l5.4,35.6l4.1-2.4l2.7-49.7
	c8.4-5.2,15.7-10.3,23.4-15.6c2.8-1.9,5.7-3.9,8.7-6c-0.9-1.8-2-3.6-3.1-5.3c-3.2,1.6-6.4,3.1-9.5,4.5c-8.5,4-16.5,7.8-25.2,12.5
	l-44.4-22.5l-4.1,2.4l28.1,22.5l4.5,6.7l0,0c0,0-8.4,4.8-14,8.1c-6.9,3.9-39,25.4-48.3,31.8C31.3,351.8,32.1,353.2,33,354.6"/>
</svg>
